<?xml version="1.0" standalone="no"?>
<!DOCTYPE svg PUBLIC "-//W3C//DTD SVG 20010904//EN"
 "http://www.w3.org/TR/2001/REC-SVG-20010904/DTD/svg10.dtd">
<svg version="1.0" xmlns="http://www.w3.org/2000/svg"
 width="128.000000pt" height="128.000000pt" viewBox="0 0 128.000000 128.000000"
 preserveAspectRatio="xMidYMid meet">

<g transform="translate(0.000000,128.000000) scale(0.100000,-0.100000)"
fill="#000000" stroke="none">
<path d="M545 1110 c-225 -33 -382 -175 -415 -377 -15 -89 -14 -93 20 -93 23
0 30 -4 30 -20 0 -14 -7 -20 -21 -20 -19 0 -21 -4 -14 -37 4 -20 13 -46 21
-57 8 -11 14 -40 14 -63 0 -36 -3 -43 -20 -43 -13 0 -20 -7 -20 -20 0 -13 7
-20 20 -20 13 0 20 -7 20 -20 0 -16 -7 -20 -31 -20 l-32 0 5 -51 c4 -38 12
-58 32 -77 l26 -27 460 0 460 0 26 27 c20 19 28 39 32 77 l5 51 -32 0 c-24 0
-31 4 -31 20 0 13 7 20 20 20 13 0 20 7 20 20 0 13 -7 20 -20 20 -17 0 -20 7
-20 43 0 23 6 52 14 63 8 11 17 37 21 57 7 33 5 37 -14 37 -14 0 -21 6 -21 20
0 16 7 20 30 20 34 0 35 4 20 93 -27 169 -143 298 -314 353 -83 26 -206 36
-291 24z m227 -41 c87 -18 177 -67 238 -128 l55 -56 -72 -3 c-65 -3 -73 -5
-73 -22 0 -18 7 -20 84 -20 75 0 84 -2 89 -20 5 -18 0 -20 -44 -20 -42 0 -49
-3 -49 -20 0 -18 7 -20 54 -20 57 0 66 -7 66 -56 l0 -24 -480 0 -480 0 0 23
c0 40 30 127 61 178 54 87 157 157 272 185 66 16 210 17 279 3z m288 -449 c0
-20 -7 -20 -420 -20 -413 0 -420 0 -420 20 0 20 7 20 420 20 413 0 420 0 420
-20z m-680 -71 c0 -6 -13 -24 -29 -40 -23 -23 -38 -29 -71 -29 -33 0 -48 6
-71 29 -16 16 -29 34 -29 40 0 7 35 11 100 11 65 0 100 -4 100 -11z m240 0 c0
-6 -13 -24 -29 -40 -23 -23 -38 -29 -71 -29 -33 0 -48 6 -71 29 -16 16 -29 34
-29 40 0 7 35 11 100 11 65 0 100 -4 100 -11z m240 0 c0 -6 -13 -24 -29 -40
-23 -23 -38 -29 -71 -29 -33 0 -48 6 -71 29 -16 16 -29 34 -29 40 0 7 35 11
100 11 65 0 100 -4 100 -11z m240 0 c0 -6 -13 -24 -29 -40 -23 -23 -38 -29
-71 -29 -33 0 -48 6 -71 29 -16 16 -29 34 -29 40 0 7 35 11 100 11 65 0 100
-4 100 -11z m-671 -68 c53 -50 128 -50 181 -1 l30 28 30 -28 c33 -31 75 -42
120 -33 17 3 44 18 60 33 l30 28 30 -28 c33 -31 75 -42 120 -33 27 5 30 3 30
-21 l0 -26 -420 0 -420 0 0 24 c0 22 4 23 53 22 40 0 61 5 85 23 18 12 32 27
32 32 0 14 5 11 39 -20z m631 -141 c0 -20 -7 -20 -420 -20 -413 0 -420 0 -420
20 0 20 7 20 420 20 413 0 420 0 420 -20z m60 -82 c0 -12 -7 -30 -17 -40 -15
-17 -43 -18 -461 -18 -400 0 -447 2 -464 17 -10 9 -18 27 -18 40 l0 23 480 0
480 0 0 -22z"/>
</g>
</svg>
